<?xml version="1.0" encoding="utf-8"?>
<!-- Generator: Adobe Illustrator 16.0.0, SVG Export Plug-In . SVG Version: 6.00 Build 0)  -->
<!DOCTYPE svg PUBLIC "-//W3C//DTD SVG 1.1//EN" "http://www.w3.org/Graphics/SVG/1.1/DTD/svg11.dtd">
<svg xmlns="http://www.w3.org/2000/svg" xmlns:xlink="http://www.w3.org/1999/xlink" version="1.1" x="0px" y="0px" width="73.701px" height="73.701px" viewBox="-8 -7 73.701 73.701" xml:space="preserve">
<g id="Layer_2">
	<circle fill="#414141" cx="28.851" cy="29.851" r="36.851"/>
</g>
<g id="Layer_1">
	<g>
		<path fill="#FFFFFF" d="M16.961,15.232h9.857c0.273,0,0.5-0.225,0.5-0.5c0-0.276-0.227-0.5-0.5-0.5h-9.857    c-0.273,0-0.5,0.224-0.5,0.5S16.684,15.232,16.961,15.232z"/>
		<path fill="#FFFFFF" d="M16.961,19.169h9.857c0.273,0,0.5-0.226,0.5-0.5c0-0.276-0.227-0.5-0.5-0.5h-9.857    c-0.273,0-0.5,0.224-0.5,0.5C16.461,18.945,16.684,19.169,16.961,19.169z"/>
		<path fill="#FFFFFF" d="M16.961,22.882h9.857c0.273,0,0.5-0.226,0.5-0.5c0-0.275-0.227-0.5-0.5-0.5h-9.857    c-0.273,0-0.5,0.225-0.5,0.5C16.461,22.656,16.684,22.882,16.961,22.882z"/>
		<path fill="#FFFFFF" d="M16.961,35.539h23.896c0.273,0,0.5-0.224,0.5-0.5c0-0.274-0.227-0.5-0.5-0.5H16.961    c-0.273,0-0.5,0.226-0.5,0.5C16.461,35.316,16.684,35.539,16.961,35.539z"/>
		<path fill="#FFFFFF" d="M16.961,38.688h23.896c0.273,0,0.5-0.224,0.5-0.5c0-0.275-0.227-0.5-0.5-0.5H16.961    c-0.273,0-0.5,0.225-0.5,0.5C16.461,38.465,16.684,38.688,16.961,38.688z"/>
		<path fill="#FFFFFF" d="M44.939,8.33H12.761c-0.411,0-0.75,0.338-0.75,0.75v41.541c0,0.414,0.339,0.75,0.75,0.75h32.179    c0.414,0,0.75-0.336,0.75-0.75V9.08C45.689,8.667,45.353,8.33,44.939,8.33z M20.66,49.392l-6.713-6.893h6.713V49.392z     M13.511,43.486l6.223,6.386h-6.223V43.486z M44.189,49.871H21.66V42c0-0.276-0.224-0.5-0.5-0.5h-7.648V9.83h30.679L44.189,49.871    L44.189,49.871z"/>
		<path fill="#FFFFFF" d="M32.532,21.91l-1.639,6.315c-0.037,0.137-0.016,0.281,0.062,0.399c0.076,0.116,0.201,0.196,0.34,0.22    l4.262,0.679l0.014,1.038c0.002,0.144,0.062,0.278,0.172,0.372c0.092,0.079,0.209,0.122,0.328,0.122    c0.02,0,0.043-0.001,0.062-0.004l5.316-0.706c0.139-0.02,0.262-0.093,0.342-0.207c0.082-0.113,0.111-0.256,0.082-0.394    l-1.658-7.824c1.107-1.03,1.807-2.495,1.807-4.123c0-3.11-2.531-5.643-5.645-5.643c-3.107,0-5.641,2.529-5.641,5.643    C30.74,19.421,31.433,20.881,32.532,21.91z M31.999,27.946l1.396-5.372c0.625,0.394,1.33,0.664,2.086,0.786l0.062,5.149    L31.999,27.946z M40.786,29.427l-4.223,0.562l-0.082-6.554c1.047-0.019,2.02-0.324,2.854-0.841L40.786,29.427z M36.38,13.156    c2.562,0,4.645,2.082,4.645,4.643c0,2.56-2.082,4.641-4.645,4.641c-2.559,0-4.641-2.081-4.641-4.641    C31.74,15.239,33.822,13.156,36.38,13.156z"/>
	</g>
</g>
</svg>
