<?xml version="1.0" encoding="utf-8"?>
<!-- Generator: Adobe Illustrator 16.0.0, SVG Export Plug-In . SVG Version: 6.00 Build 0)  -->
<!DOCTYPE svg PUBLIC "-//W3C//DTD SVG 1.1//EN" "http://www.w3.org/Graphics/SVG/1.1/DTD/svg11.dtd">
<svg xmlns="http://www.w3.org/2000/svg" xmlns:xlink="http://www.w3.org/1999/xlink" version="1.1" x="0px" y="0px" width="73.701px" height="73.701px" viewBox="-8 -7 73.701 73.701" xml:space="preserve">
<g id="Layer_2">
	<circle fill="#414141" cx="28.851" cy="29.851" r="36.851"/>
</g>
<g id="Layer_1">
	<g>
		<path fill="#FFFFFF" d="M48.093,10.609c-3.309-3.307-7.701-5.127-12.381-5.127c-4.676,0-9.068,1.82-12.376,5.127    c-3.307,3.308-5.127,7.701-5.127,12.377c0,4.423,1.646,8.583,4.622,11.82l-2.415,2.416c-1.426-0.906-3.435-0.752-4.653,0.471    L5.569,47.886c-0.701,0.701-1.087,1.631-1.087,2.623s0.386,1.924,1.087,2.625c0.701,0.699,1.633,1.086,2.623,1.086    s1.922-0.387,2.622-1.086L21.01,42.941c1.263-1.266,1.421-3.223,0.476-4.66l2.409-2.41c3.234,2.977,7.396,4.623,11.818,4.623    c4.68,0,9.072-1.82,12.381-5.127c3.307-3.307,5.127-7.7,5.127-12.376C53.22,18.311,51.4,13.917,48.093,10.609z M19.948,41.88    L9.753,52.072c-0.834,0.834-2.29,0.834-3.124,0c-0.418-0.418-0.646-0.973-0.646-1.562c0-0.588,0.229-1.146,0.646-1.562    l10.193-10.189c0.418-0.418,0.973-0.646,1.562-0.646c0.589,0,1.145,0.229,1.562,0.646C20.808,39.615,20.808,41.017,19.948,41.88z     M47.032,34.302c-3.021,3.021-7.043,4.688-11.314,4.688c-4.273,0-8.296-1.664-11.316-4.688c-3.022-3.021-4.688-7.041-4.688-11.315    c0-4.273,1.665-8.294,4.688-11.315c3.021-3.023,7.042-4.688,11.316-4.688c4.271,0,8.295,1.664,11.314,4.688    c3.021,3.021,4.688,7.042,4.688,11.315C51.72,27.261,50.054,31.281,47.032,34.302z"/>
		<path fill="#FFFFFF" d="M45.603,14.754c-1.158,0-2.104,0.94-2.104,2.101c0,0.625,0.279,1.181,0.717,1.565l-5.729,10.901    c-0.162-0.041-0.328-0.066-0.504-0.066c-0.314,0-0.611,0.073-0.881,0.198l-3.537-4.425c0.27-0.354,0.439-0.793,0.439-1.272    c0-1.158-0.939-2.103-2.102-2.103c-1.16,0-2.1,0.941-2.1,2.103c0,0.396,0.113,0.766,0.311,1.083l-2.461,2.46    c-0.317-0.192-0.686-0.312-1.083-0.312c-1.158,0-2.101,0.941-2.101,2.102c0,1.157,0.939,2.1,2.101,2.1s2.101-0.941,2.101-2.1    c0-0.396-0.114-0.768-0.311-1.083l2.461-2.46c0.316,0.191,0.688,0.311,1.082,0.311c0.314,0,0.611-0.075,0.879-0.199l3.539,4.428    c-0.27,0.354-0.438,0.791-0.438,1.271c0,1.156,0.939,2.102,2.1,2.102c1.162,0,2.1-0.941,2.1-2.102    c0-0.625-0.275-1.182-0.713-1.564l5.73-10.903c0.162,0.041,0.328,0.068,0.502,0.068c1.158,0,2.102-0.942,2.102-2.102    C47.704,15.695,46.761,14.754,45.603,14.754z M26.573,30.187c-0.604,0-1.101-0.492-1.101-1.099c0-0.605,0.494-1.102,1.101-1.102    c0.303,0,0.577,0.123,0.776,0.321c0.001,0,0.001,0,0.001,0.001s0.001,0,0.001,0c0.199,0.199,0.319,0.475,0.319,0.776    C27.673,29.695,27.179,30.187,26.573,30.187z M30.806,23.755c0-0.606,0.494-1.103,1.102-1.103s1.104,0.494,1.104,1.103    c0,0.605-0.494,1.1-1.104,1.1C31.3,24.853,30.806,24.36,30.806,23.755z M37.984,32.454c-0.605,0-1.1-0.492-1.1-1.102    c0-0.605,0.49-1.1,1.1-1.1s1.1,0.492,1.1,1.1S38.589,32.454,37.984,32.454z M45.603,17.953c-0.605,0-1.104-0.491-1.104-1.101    c0-0.606,0.494-1.101,1.104-1.101c0.605,0,1.102,0.492,1.102,1.101S46.208,17.953,45.603,17.953z"/>
	</g>
</g>
</svg>
